<svg xmlns="http://www.w3.org/2000/svg" width="512" height="512" viewBox="0 0 512 512">
  <defs>
    <linearGradient id="bg" x1="0%" y1="0%" x2="100%" y2="100%">
      <stop offset="0%" style="stop-color:#1a6fd4"/>
      <stop offset="100%" style="stop-color:#0ea5e9"/>
    </linearGradient>
  </defs>
  <rect width="512" height="512" rx="100" fill="url(#bg)"/>
  <rect x="80" y="130" width="352" height="252" rx="28" fill="rgba(255,255,255,0.18)" stroke="rgba(255,255,255,0.45)" stroke-width="2"/>
  <rect x="80" y="130" width="352" height="76" rx="28" fill="rgba(255,255,255,0.28)"/>
  <rect x="80" y="182" width="352" height="24" fill="rgba(255,255,255,0.18)"/>
  <rect x="112" y="152" width="130" height="14" rx="7" fill="rgba(255,255,255,0.95)"/>
  <rect x="112" y="175" width="90" height="9" rx="4" fill="rgba(255,255,255,0.6)"/>
  <rect x="112" y="232" width="64" height="44" rx="10" fill="rgba(255,255,255,0.12)" stroke="rgba(255,255,255,0.35)" stroke-width="1.5"/>
  <rect x="192" y="232" width="64" height="44" rx="10" fill="rgba(255,255,255,0.12)" stroke="rgba(255,255,255,0.35)" stroke-width="1.5"/>
  <rect x="272" y="232" width="64" height="44" rx="10" fill="rgba(255,255,255,0.12)" stroke="rgba(255,255,255,0.35)" stroke-width="1.5"/>
  <rect x="352" y="232" width="64" height="44" rx="10" fill="rgba(52,211,153,0.7)" stroke="rgba(255,255,255,0.45)" stroke-width="1.5"/>
  <text x="384" y="262" text-anchor="middle" font-size="26" fill="white">✓</text>
  <rect x="112" y="298" width="288" height="10" rx="5" fill="rgba(255,255,255,0.12)"/>
  <rect x="112" y="298" width="190" height="10" rx="5" fill="rgba(52,211,153,0.75)"/>
  <rect x="112" y="326" width="288" height="10" rx="5" fill="rgba(255,255,255,0.12)"/>
  <rect x="112" y="326" width="100" height="10" rx="5" fill="rgba(245,158,11,0.8)"/>
  <text x="256" y="460" text-anchor="middle" font-family="serif" font-size="28" fill="rgba(255,255,255,0.7)" font-weight="bold">نظام الأقساط</text>
</svg>
